<mxfile host="app.diagrams.net" modified="2022-01-20T17:54:35.185Z" agent="5.0 (Windows NT 10.0; Win64; x64) AppleWebKit/537.36 (KHTML, like Gecko) Chrome/92.0.4700.1 Iron Safari/537.36" etag="SbnMqPCeSIvnrDmLA8dV" version="15.9.3" type="github">
  <diagram id="pN8iW42vIig4SbAahBh1" name="Page-1">
    <mxGraphModel dx="1846" dy="1728" grid="1" gridSize="10" guides="1" tooltips="1" connect="1" arrows="1" fold="1" page="1" pageScale="1" pageWidth="827" pageHeight="1169" math="0" shadow="0">
      <root>
        <mxCell id="0" />
        <mxCell id="1" parent="0" />
        <mxCell id="1k6euswh9Xf4VPnlZ9CX-1" value="&lt;font style=&quot;font-size: 42px&quot;&gt;a&lt;/font&gt;" style="ellipse;whiteSpace=wrap;html=1;aspect=fixed;" vertex="1" parent="1">
          <mxGeometry x="600" y="240" width="80" height="80" as="geometry" />
        </mxCell>
        <mxCell id="1k6euswh9Xf4VPnlZ9CX-18" style="edgeStyle=none;rounded=1;orthogonalLoop=1;jettySize=auto;html=1;exitX=0;exitY=1;exitDx=0;exitDy=0;entryX=1;entryY=0;entryDx=0;entryDy=0;fontSize=42;strokeWidth=4;" edge="1" parent="1" source="1k6euswh9Xf4VPnlZ9CX-2" target="1k6euswh9Xf4VPnlZ9CX-1">
          <mxGeometry relative="1" as="geometry" />
        </mxCell>
        <mxCell id="1k6euswh9Xf4VPnlZ9CX-14" style="rounded=0;orthogonalLoop=1;jettySize=auto;html=1;fontSize=42;strokeWidth=4;exitX=1;exitY=0.5;exitDx=0;exitDy=0;entryX=0.037;entryY=0.733;entryDx=0;entryDy=0;entryPerimeter=0;" edge="1" parent="1" source="1k6euswh9Xf4VPnlZ9CX-3" target="1k6euswh9Xf4VPnlZ9CX-2">
          <mxGeometry relative="1" as="geometry">
            <mxPoint x="830" y="60" as="sourcePoint" />
            <mxPoint x="960" y="-10" as="targetPoint" />
          </mxGeometry>
        </mxCell>
        <mxCell id="1k6euswh9Xf4VPnlZ9CX-15" style="rounded=1;orthogonalLoop=1;jettySize=auto;html=1;exitX=0;exitY=0.5;exitDx=0;exitDy=0;fontSize=42;strokeWidth=4;entryX=1.003;entryY=0.694;entryDx=0;entryDy=0;entryPerimeter=0;" edge="1" parent="1" source="1k6euswh9Xf4VPnlZ9CX-3" target="1k6euswh9Xf4VPnlZ9CX-5">
          <mxGeometry relative="1" as="geometry">
            <mxPoint x="570" y="-10" as="targetPoint" />
          </mxGeometry>
        </mxCell>
        <mxCell id="1k6euswh9Xf4VPnlZ9CX-3" value="&lt;span style=&quot;font-size: 42px&quot;&gt;c&lt;/span&gt;" style="ellipse;whiteSpace=wrap;html=1;aspect=fixed;" vertex="1" parent="1">
          <mxGeometry x="730" width="80" height="80" as="geometry" />
        </mxCell>
        <mxCell id="1k6euswh9Xf4VPnlZ9CX-10" style="orthogonalLoop=1;jettySize=auto;html=1;exitX=0;exitY=1;exitDx=0;exitDy=0;fontSize=42;strokeWidth=4;entryX=0.954;entryY=0.322;entryDx=0;entryDy=0;entryPerimeter=0;" edge="1" parent="1" source="1k6euswh9Xf4VPnlZ9CX-4" target="1k6euswh9Xf4VPnlZ9CX-5">
          <mxGeometry relative="1" as="geometry" />
        </mxCell>
        <mxCell id="1k6euswh9Xf4VPnlZ9CX-4" value="&lt;span style=&quot;font-size: 42px&quot;&gt;d&lt;/span&gt;" style="ellipse;whiteSpace=wrap;html=1;aspect=fixed;" vertex="1" parent="1">
          <mxGeometry x="730" y="-270" width="80" height="80" as="geometry" />
        </mxCell>
        <mxCell id="1k6euswh9Xf4VPnlZ9CX-11" style="edgeStyle=orthogonalEdgeStyle;rounded=0;orthogonalLoop=1;jettySize=auto;html=1;exitX=1;exitY=0.5;exitDx=0;exitDy=0;entryX=0;entryY=0.5;entryDx=0;entryDy=0;fontSize=42;strokeWidth=4;" edge="1" parent="1" source="1k6euswh9Xf4VPnlZ9CX-5" target="1k6euswh9Xf4VPnlZ9CX-2">
          <mxGeometry relative="1" as="geometry" />
        </mxCell>
        <mxCell id="1k6euswh9Xf4VPnlZ9CX-12" style="rounded=0;orthogonalLoop=1;jettySize=auto;html=1;exitX=1;exitY=1;exitDx=0;exitDy=0;fontSize=42;strokeWidth=4;entryX=0.057;entryY=0.302;entryDx=0;entryDy=0;entryPerimeter=0;" edge="1" parent="1" source="1k6euswh9Xf4VPnlZ9CX-5" target="1k6euswh9Xf4VPnlZ9CX-6">
          <mxGeometry relative="1" as="geometry">
            <mxPoint x="840" y="260" as="targetPoint" />
          </mxGeometry>
        </mxCell>
        <mxCell id="1k6euswh9Xf4VPnlZ9CX-17" style="edgeStyle=none;rounded=1;orthogonalLoop=1;jettySize=auto;html=1;exitX=0.5;exitY=1;exitDx=0;exitDy=0;entryX=0;entryY=0;entryDx=0;entryDy=0;fontSize=42;strokeWidth=4;" edge="1" parent="1" source="1k6euswh9Xf4VPnlZ9CX-5" target="1k6euswh9Xf4VPnlZ9CX-1">
          <mxGeometry relative="1" as="geometry" />
        </mxCell>
        <mxCell id="1k6euswh9Xf4VPnlZ9CX-5" value="&lt;span style=&quot;font-size: 42px&quot;&gt;e&lt;/span&gt;" style="ellipse;whiteSpace=wrap;html=1;aspect=fixed;" vertex="1" parent="1">
          <mxGeometry x="460" y="-80" width="80" height="80" as="geometry" />
        </mxCell>
        <mxCell id="1k6euswh9Xf4VPnlZ9CX-13" style="rounded=0;orthogonalLoop=1;jettySize=auto;html=1;exitX=0;exitY=0;exitDx=0;exitDy=0;entryX=1;entryY=1;entryDx=0;entryDy=0;fontSize=42;strokeWidth=4;" edge="1" parent="1" source="1k6euswh9Xf4VPnlZ9CX-6" target="1k6euswh9Xf4VPnlZ9CX-3">
          <mxGeometry relative="1" as="geometry" />
        </mxCell>
        <mxCell id="1k6euswh9Xf4VPnlZ9CX-20" style="edgeStyle=none;orthogonalLoop=1;jettySize=auto;html=1;exitX=0;exitY=0.5;exitDx=0;exitDy=0;entryX=1;entryY=0.5;entryDx=0;entryDy=0;fontSize=42;strokeWidth=4;dashed=1;dashPattern=1 4;" edge="1" parent="1" source="1k6euswh9Xf4VPnlZ9CX-6" target="1k6euswh9Xf4VPnlZ9CX-1">
          <mxGeometry relative="1" as="geometry" />
        </mxCell>
        <mxCell id="1k6euswh9Xf4VPnlZ9CX-6" value="&lt;span style=&quot;font-size: 42px&quot;&gt;f&lt;/span&gt;" style="ellipse;whiteSpace=wrap;html=1;aspect=fixed;" vertex="1" parent="1">
          <mxGeometry x="840" y="240" width="80" height="80" as="geometry" />
        </mxCell>
        <mxCell id="1k6euswh9Xf4VPnlZ9CX-8" value="" style="endArrow=classic;html=1;rounded=0;fontSize=42;exitX=1;exitY=1;exitDx=0;exitDy=0;strokeWidth=4;entryX=0.076;entryY=0.273;entryDx=0;entryDy=0;entryPerimeter=0;" edge="1" parent="1" source="1k6euswh9Xf4VPnlZ9CX-4" target="1k6euswh9Xf4VPnlZ9CX-2">
          <mxGeometry width="50" height="50" relative="1" as="geometry">
            <mxPoint x="610" y="110" as="sourcePoint" />
            <mxPoint x="980" y="-70" as="targetPoint" />
          </mxGeometry>
        </mxCell>
        <mxCell id="1k6euswh9Xf4VPnlZ9CX-9" value="" style="endArrow=classic;html=1;rounded=0;fontSize=42;strokeWidth=4;exitX=0.5;exitY=1;exitDx=0;exitDy=0;entryX=0.5;entryY=0;entryDx=0;entryDy=0;" edge="1" parent="1" source="1k6euswh9Xf4VPnlZ9CX-4" target="1k6euswh9Xf4VPnlZ9CX-3">
          <mxGeometry width="50" height="50" relative="1" as="geometry">
            <mxPoint x="450" y="-100" as="sourcePoint" />
            <mxPoint x="780" y="-20" as="targetPoint" />
          </mxGeometry>
        </mxCell>
        <mxCell id="1k6euswh9Xf4VPnlZ9CX-2" value="&lt;span style=&quot;font-size: 42px&quot;&gt;b&lt;/span&gt;" style="ellipse;whiteSpace=wrap;html=1;aspect=fixed;" vertex="1" parent="1">
          <mxGeometry x="1000" y="-80" width="80" height="80" as="geometry" />
        </mxCell>
        <mxCell id="1k6euswh9Xf4VPnlZ9CX-56" value="&lt;font style=&quot;font-size: 42px&quot;&gt;a&lt;/font&gt;" style="ellipse;whiteSpace=wrap;html=1;aspect=fixed;" vertex="1" parent="1">
          <mxGeometry x="-250" y="90" width="80" height="80" as="geometry" />
        </mxCell>
        <mxCell id="1k6euswh9Xf4VPnlZ9CX-57" style="edgeStyle=none;rounded=1;orthogonalLoop=1;jettySize=auto;html=1;exitX=0;exitY=0.5;exitDx=0;exitDy=0;entryX=1;entryY=0.5;entryDx=0;entryDy=0;fontSize=42;strokeWidth=4;" edge="1" parent="1" source="1k6euswh9Xf4VPnlZ9CX-72" target="1k6euswh9Xf4VPnlZ9CX-56">
          <mxGeometry relative="1" as="geometry" />
        </mxCell>
        <mxCell id="1k6euswh9Xf4VPnlZ9CX-58" style="rounded=0;orthogonalLoop=1;jettySize=auto;html=1;fontSize=42;strokeWidth=4;exitX=0;exitY=0.5;exitDx=0;exitDy=0;entryX=1;entryY=0.5;entryDx=0;entryDy=0;" edge="1" parent="1" source="1k6euswh9Xf4VPnlZ9CX-60" target="1k6euswh9Xf4VPnlZ9CX-72">
          <mxGeometry relative="1" as="geometry">
            <mxPoint x="109" y="150" as="sourcePoint" />
            <mxPoint x="239" y="80" as="targetPoint" />
          </mxGeometry>
        </mxCell>
        <mxCell id="1k6euswh9Xf4VPnlZ9CX-59" style="rounded=1;orthogonalLoop=1;jettySize=auto;html=1;exitX=0;exitY=0;exitDx=0;exitDy=0;fontSize=42;strokeWidth=4;entryX=1;entryY=1;entryDx=0;entryDy=0;" edge="1" parent="1" source="1k6euswh9Xf4VPnlZ9CX-60" target="1k6euswh9Xf4VPnlZ9CX-66">
          <mxGeometry relative="1" as="geometry">
            <mxPoint x="-151" y="80" as="targetPoint" />
          </mxGeometry>
        </mxCell>
        <mxCell id="1k6euswh9Xf4VPnlZ9CX-60" value="&lt;span style=&quot;font-size: 42px&quot;&gt;c&lt;/span&gt;" style="ellipse;whiteSpace=wrap;html=1;aspect=fixed;" vertex="1" parent="1">
          <mxGeometry x="229" y="90" width="80" height="80" as="geometry" />
        </mxCell>
        <mxCell id="1k6euswh9Xf4VPnlZ9CX-61" style="orthogonalLoop=1;jettySize=auto;html=1;exitX=1;exitY=0.5;exitDx=0;exitDy=0;fontSize=42;strokeWidth=4;entryX=0;entryY=0.5;entryDx=0;entryDy=0;" edge="1" parent="1" source="1k6euswh9Xf4VPnlZ9CX-62" target="1k6euswh9Xf4VPnlZ9CX-66">
          <mxGeometry relative="1" as="geometry" />
        </mxCell>
        <mxCell id="1k6euswh9Xf4VPnlZ9CX-62" value="&lt;span style=&quot;font-size: 42px&quot;&gt;d&lt;/span&gt;" style="ellipse;whiteSpace=wrap;html=1;aspect=fixed;" vertex="1" parent="1">
          <mxGeometry x="-250" y="-190" width="80" height="80" as="geometry" />
        </mxCell>
        <mxCell id="1k6euswh9Xf4VPnlZ9CX-63" style="edgeStyle=orthogonalEdgeStyle;rounded=0;orthogonalLoop=1;jettySize=auto;html=1;exitX=0.5;exitY=1;exitDx=0;exitDy=0;entryX=0.5;entryY=0;entryDx=0;entryDy=0;fontSize=42;strokeWidth=4;" edge="1" parent="1" source="1k6euswh9Xf4VPnlZ9CX-66" target="1k6euswh9Xf4VPnlZ9CX-72">
          <mxGeometry relative="1" as="geometry" />
        </mxCell>
        <mxCell id="1k6euswh9Xf4VPnlZ9CX-64" style="rounded=0;orthogonalLoop=1;jettySize=auto;html=1;exitX=1;exitY=0.5;exitDx=0;exitDy=0;fontSize=42;strokeWidth=4;entryX=0;entryY=0.5;entryDx=0;entryDy=0;" edge="1" parent="1" source="1k6euswh9Xf4VPnlZ9CX-66" target="1k6euswh9Xf4VPnlZ9CX-69">
          <mxGeometry relative="1" as="geometry">
            <mxPoint x="119" y="350" as="targetPoint" />
          </mxGeometry>
        </mxCell>
        <mxCell id="1k6euswh9Xf4VPnlZ9CX-65" style="edgeStyle=none;rounded=1;orthogonalLoop=1;jettySize=auto;html=1;exitX=0;exitY=1;exitDx=0;exitDy=0;entryX=0.632;entryY=0.008;entryDx=0;entryDy=0;fontSize=42;strokeWidth=4;entryPerimeter=0;" edge="1" parent="1" source="1k6euswh9Xf4VPnlZ9CX-66" target="1k6euswh9Xf4VPnlZ9CX-56">
          <mxGeometry relative="1" as="geometry" />
        </mxCell>
        <mxCell id="1k6euswh9Xf4VPnlZ9CX-66" value="&lt;span style=&quot;font-size: 42px&quot;&gt;e&lt;/span&gt;" style="ellipse;whiteSpace=wrap;html=1;aspect=fixed;" vertex="1" parent="1">
          <mxGeometry x="-11" y="-190" width="80" height="80" as="geometry" />
        </mxCell>
        <mxCell id="1k6euswh9Xf4VPnlZ9CX-67" style="rounded=0;orthogonalLoop=1;jettySize=auto;html=1;exitX=0.5;exitY=1;exitDx=0;exitDy=0;entryX=0.5;entryY=0;entryDx=0;entryDy=0;fontSize=42;strokeWidth=4;" edge="1" parent="1" source="1k6euswh9Xf4VPnlZ9CX-69" target="1k6euswh9Xf4VPnlZ9CX-60">
          <mxGeometry relative="1" as="geometry" />
        </mxCell>
        <mxCell id="1k6euswh9Xf4VPnlZ9CX-68" style="edgeStyle=none;orthogonalLoop=1;jettySize=auto;html=1;exitX=0;exitY=1;exitDx=0;exitDy=0;fontSize=42;strokeWidth=4;entryX=0.956;entryY=0.253;entryDx=0;entryDy=0;entryPerimeter=0;dashed=1;dashPattern=1 4;" edge="1" parent="1" source="1k6euswh9Xf4VPnlZ9CX-69" target="1k6euswh9Xf4VPnlZ9CX-56">
          <mxGeometry relative="1" as="geometry">
            <mxPoint x="-151" y="90" as="targetPoint" />
          </mxGeometry>
        </mxCell>
        <mxCell id="1k6euswh9Xf4VPnlZ9CX-69" value="&lt;span style=&quot;font-size: 42px&quot;&gt;f&lt;/span&gt;" style="ellipse;whiteSpace=wrap;html=1;aspect=fixed;" vertex="1" parent="1">
          <mxGeometry x="229" y="-190" width="80" height="80" as="geometry" />
        </mxCell>
        <mxCell id="1k6euswh9Xf4VPnlZ9CX-70" value="" style="endArrow=classic;html=1;rounded=0;fontSize=42;exitX=1;exitY=1;exitDx=0;exitDy=0;strokeWidth=4;entryX=0.076;entryY=0.273;entryDx=0;entryDy=0;entryPerimeter=0;" edge="1" parent="1" source="1k6euswh9Xf4VPnlZ9CX-62" target="1k6euswh9Xf4VPnlZ9CX-72">
          <mxGeometry width="50" height="50" relative="1" as="geometry">
            <mxPoint x="-111" y="200" as="sourcePoint" />
            <mxPoint x="259" y="20" as="targetPoint" />
          </mxGeometry>
        </mxCell>
        <mxCell id="1k6euswh9Xf4VPnlZ9CX-71" value="" style="endArrow=classic;html=1;rounded=0;fontSize=42;strokeWidth=4;entryX=0.047;entryY=0.273;entryDx=0;entryDy=0;exitX=0.956;exitY=0.773;exitDx=0;exitDy=0;exitPerimeter=0;entryPerimeter=0;" edge="1" parent="1" source="1k6euswh9Xf4VPnlZ9CX-62" target="1k6euswh9Xf4VPnlZ9CX-60">
          <mxGeometry width="50" height="50" relative="1" as="geometry">
            <mxPoint x="-141" y="-110" as="sourcePoint" />
            <mxPoint x="59" y="70" as="targetPoint" />
          </mxGeometry>
        </mxCell>
        <mxCell id="1k6euswh9Xf4VPnlZ9CX-72" value="&lt;span style=&quot;font-size: 42px&quot;&gt;b&lt;/span&gt;" style="ellipse;whiteSpace=wrap;html=1;aspect=fixed;" vertex="1" parent="1">
          <mxGeometry x="-11" y="90" width="80" height="80" as="geometry" />
        </mxCell>
        <mxCell id="1k6euswh9Xf4VPnlZ9CX-73" value="&lt;font color=&quot;#66b2ff&quot;&gt;-1&lt;/font&gt;" style="text;html=1;strokeColor=none;fillColor=none;align=center;verticalAlign=middle;whiteSpace=wrap;rounded=0;fontSize=42;" vertex="1" parent="1">
          <mxGeometry x="-240" y="-230" width="60" height="30" as="geometry" />
        </mxCell>
        <mxCell id="1k6euswh9Xf4VPnlZ9CX-74" value="&lt;font color=&quot;#ff0000&quot;&gt;1&lt;/font&gt;" style="text;html=1;strokeColor=none;fillColor=none;align=center;verticalAlign=middle;whiteSpace=wrap;rounded=0;fontSize=42;" vertex="1" parent="1">
          <mxGeometry x="239" y="-230" width="60" height="30" as="geometry" />
        </mxCell>
        <mxCell id="1k6euswh9Xf4VPnlZ9CX-75" value="&lt;font color=&quot;#ff0000&quot;&gt;1&lt;/font&gt;" style="text;html=1;strokeColor=none;fillColor=none;align=center;verticalAlign=middle;whiteSpace=wrap;rounded=0;fontSize=42;" vertex="1" parent="1">
          <mxGeometry x="-240" y="190" width="60" height="30" as="geometry" />
        </mxCell>
        <mxCell id="1k6euswh9Xf4VPnlZ9CX-76" value="&lt;font style=&quot;font-size: 32px&quot;&gt;0&lt;/font&gt;" style="text;html=1;strokeColor=none;fillColor=none;align=center;verticalAlign=middle;whiteSpace=wrap;rounded=0;fontSize=42;" vertex="1" parent="1">
          <mxGeometry x="160" y="-90" width="60" height="30" as="geometry" />
        </mxCell>
        <mxCell id="1k6euswh9Xf4VPnlZ9CX-77" value="&lt;font style=&quot;font-size: 32px&quot;&gt;3&lt;/font&gt;" style="text;html=1;strokeColor=none;fillColor=none;align=center;verticalAlign=middle;whiteSpace=wrap;rounded=0;fontSize=42;" vertex="1" parent="1">
          <mxGeometry x="110" y="-190" width="60" height="30" as="geometry" />
        </mxCell>
        <mxCell id="1k6euswh9Xf4VPnlZ9CX-78" value="&lt;font style=&quot;font-size: 32px&quot;&gt;3&lt;/font&gt;" style="text;html=1;strokeColor=none;fillColor=none;align=center;verticalAlign=middle;whiteSpace=wrap;rounded=0;fontSize=42;" vertex="1" parent="1">
          <mxGeometry x="280" y="-50" width="60" height="30" as="geometry" />
        </mxCell>
        <mxCell id="1k6euswh9Xf4VPnlZ9CX-79" value="&lt;font style=&quot;font-size: 32px&quot;&gt;6&lt;/font&gt;" style="text;html=1;strokeColor=none;fillColor=none;align=center;verticalAlign=middle;whiteSpace=wrap;rounded=0;fontSize=42;" vertex="1" parent="1">
          <mxGeometry x="169" width="60" height="30" as="geometry" />
        </mxCell>
        <mxCell id="1k6euswh9Xf4VPnlZ9CX-80" value="&lt;font style=&quot;font-size: 32px&quot;&gt;5&lt;/font&gt;" style="text;html=1;strokeColor=none;fillColor=none;align=center;verticalAlign=middle;whiteSpace=wrap;rounded=0;fontSize=42;" vertex="1" parent="1">
          <mxGeometry x="-150" y="-130" width="60" height="30" as="geometry" />
        </mxCell>
        <mxCell id="1k6euswh9Xf4VPnlZ9CX-81" value="&lt;font style=&quot;font-size: 32px&quot;&gt;4&lt;/font&gt;" style="text;html=1;strokeColor=none;fillColor=none;align=center;verticalAlign=middle;whiteSpace=wrap;rounded=0;fontSize=42;" vertex="1" parent="1">
          <mxGeometry x="-130" y="-190" width="60" height="30" as="geometry" />
        </mxCell>
        <mxCell id="1k6euswh9Xf4VPnlZ9CX-82" value="&lt;font style=&quot;font-size: 32px&quot;&gt;3&lt;/font&gt;" style="text;html=1;strokeColor=none;fillColor=none;align=center;verticalAlign=middle;whiteSpace=wrap;rounded=0;fontSize=42;" vertex="1" parent="1">
          <mxGeometry x="-200" y="-90" width="60" height="30" as="geometry" />
        </mxCell>
        <mxCell id="1k6euswh9Xf4VPnlZ9CX-83" value="&lt;font style=&quot;font-size: 32px&quot;&gt;4&lt;/font&gt;" style="text;html=1;strokeColor=none;fillColor=none;align=center;verticalAlign=middle;whiteSpace=wrap;rounded=0;fontSize=42;" vertex="1" parent="1">
          <mxGeometry x="-70" y="-120" width="60" height="30" as="geometry" />
        </mxCell>
        <mxCell id="1k6euswh9Xf4VPnlZ9CX-84" value="&lt;font style=&quot;font-size: 32px&quot;&gt;5&lt;/font&gt;" style="text;html=1;strokeColor=none;fillColor=none;align=center;verticalAlign=middle;whiteSpace=wrap;rounded=0;fontSize=42;" vertex="1" parent="1">
          <mxGeometry x="-20" y="-90" width="60" height="30" as="geometry" />
        </mxCell>
        <mxCell id="1k6euswh9Xf4VPnlZ9CX-85" value="&lt;font style=&quot;font-size: 32px&quot;&gt;5&lt;/font&gt;" style="text;html=1;strokeColor=none;fillColor=none;align=center;verticalAlign=middle;whiteSpace=wrap;rounded=0;fontSize=42;" vertex="1" parent="1">
          <mxGeometry x="-120" y="140" width="60" height="30" as="geometry" />
        </mxCell>
        <mxCell id="1k6euswh9Xf4VPnlZ9CX-86" value="&lt;font style=&quot;font-size: 32px&quot;&gt;2&lt;/font&gt;" style="text;html=1;strokeColor=none;fillColor=none;align=center;verticalAlign=middle;whiteSpace=wrap;rounded=0;fontSize=42;" vertex="1" parent="1">
          <mxGeometry x="130" y="140" width="60" height="30" as="geometry" />
        </mxCell>
        <mxCell id="1k6euswh9Xf4VPnlZ9CX-87" value="&lt;font color=&quot;#66b2ff&quot;&gt;-1&lt;/font&gt;" style="text;html=1;strokeColor=none;fillColor=none;align=center;verticalAlign=middle;whiteSpace=wrap;rounded=0;fontSize=42;" vertex="1" parent="1">
          <mxGeometry x="740" y="-310" width="60" height="30" as="geometry" />
        </mxCell>
        <mxCell id="1k6euswh9Xf4VPnlZ9CX-89" value="&lt;font color=&quot;#ff0000&quot;&gt;1&lt;/font&gt;" style="text;html=1;strokeColor=none;fillColor=none;align=center;verticalAlign=middle;whiteSpace=wrap;rounded=0;fontSize=42;" vertex="1" parent="1">
          <mxGeometry x="610" y="330" width="60" height="30" as="geometry" />
        </mxCell>
        <mxCell id="1k6euswh9Xf4VPnlZ9CX-90" value="&lt;font color=&quot;#ff0000&quot;&gt;1&lt;/font&gt;" style="text;html=1;strokeColor=none;fillColor=none;align=center;verticalAlign=middle;whiteSpace=wrap;rounded=0;fontSize=42;" vertex="1" parent="1">
          <mxGeometry x="850" y="330" width="60" height="30" as="geometry" />
        </mxCell>
        <mxCell id="1k6euswh9Xf4VPnlZ9CX-91" value="&lt;font style=&quot;font-size: 32px&quot;&gt;4&lt;/font&gt;" style="text;html=1;strokeColor=none;fillColor=none;align=center;verticalAlign=middle;whiteSpace=wrap;rounded=0;fontSize=42;" vertex="1" parent="1">
          <mxGeometry x="610" y="-170" width="60" height="30" as="geometry" />
        </mxCell>
        <mxCell id="1k6euswh9Xf4VPnlZ9CX-92" value="&lt;font style=&quot;font-size: 32px&quot;&gt;5&lt;/font&gt;" style="text;html=1;strokeColor=none;fillColor=none;align=center;verticalAlign=middle;whiteSpace=wrap;rounded=0;fontSize=42;" vertex="1" parent="1">
          <mxGeometry x="760" y="-130" width="60" height="30" as="geometry" />
        </mxCell>
        <mxCell id="1k6euswh9Xf4VPnlZ9CX-93" value="&lt;font style=&quot;font-size: 32px&quot;&gt;3&lt;/font&gt;" style="text;html=1;strokeColor=none;fillColor=none;align=center;verticalAlign=middle;whiteSpace=wrap;rounded=0;fontSize=42;" vertex="1" parent="1">
          <mxGeometry x="890" y="-160" width="60" height="30" as="geometry" />
        </mxCell>
        <mxCell id="1k6euswh9Xf4VPnlZ9CX-95" value="&lt;font style=&quot;font-size: 32px&quot;&gt;4&lt;/font&gt;" style="text;html=1;strokeColor=none;fillColor=none;align=center;verticalAlign=middle;whiteSpace=wrap;rounded=0;fontSize=42;" vertex="1" parent="1">
          <mxGeometry x="500" y="100" width="60" height="30" as="geometry" />
        </mxCell>
        <mxCell id="1k6euswh9Xf4VPnlZ9CX-96" value="&lt;font style=&quot;font-size: 32px&quot;&gt;3&lt;/font&gt;" style="text;html=1;strokeColor=none;fillColor=none;align=center;verticalAlign=middle;whiteSpace=wrap;rounded=0;fontSize=42;" vertex="1" parent="1">
          <mxGeometry x="610" y="110" width="60" height="30" as="geometry" />
        </mxCell>
        <mxCell id="1k6euswh9Xf4VPnlZ9CX-97" value="&lt;font style=&quot;font-size: 32px&quot;&gt;5&lt;/font&gt;" style="text;html=1;strokeColor=none;fillColor=none;align=center;verticalAlign=middle;whiteSpace=wrap;rounded=0;fontSize=42;" vertex="1" parent="1">
          <mxGeometry x="650" y="-80" width="60" height="30" as="geometry" />
        </mxCell>
        <mxCell id="1k6euswh9Xf4VPnlZ9CX-98" value="&lt;font style=&quot;font-size: 32px&quot;&gt;6&lt;/font&gt;" style="text;html=1;strokeColor=none;fillColor=none;align=center;verticalAlign=middle;whiteSpace=wrap;rounded=0;fontSize=42;" vertex="1" parent="1">
          <mxGeometry x="640" y="-20" width="60" height="30" as="geometry" />
        </mxCell>
        <mxCell id="1k6euswh9Xf4VPnlZ9CX-99" value="&lt;font style=&quot;font-size: 32px&quot;&gt;2&lt;/font&gt;" style="text;html=1;strokeColor=none;fillColor=none;align=center;verticalAlign=middle;whiteSpace=wrap;rounded=0;fontSize=42;" vertex="1" parent="1">
          <mxGeometry x="850" y="-20" width="60" height="30" as="geometry" />
        </mxCell>
        <mxCell id="1k6euswh9Xf4VPnlZ9CX-100" value="&lt;font style=&quot;font-size: 32px&quot;&gt;5&lt;/font&gt;" style="text;html=1;strokeColor=none;fillColor=none;align=center;verticalAlign=middle;whiteSpace=wrap;rounded=0;fontSize=42;" vertex="1" parent="1">
          <mxGeometry x="890" y="80" width="60" height="30" as="geometry" />
        </mxCell>
        <mxCell id="1k6euswh9Xf4VPnlZ9CX-101" value="&lt;font style=&quot;font-size: 32px&quot;&gt;3&lt;/font&gt;" style="text;html=1;strokeColor=none;fillColor=none;align=center;verticalAlign=middle;whiteSpace=wrap;rounded=0;fontSize=42;" vertex="1" parent="1">
          <mxGeometry x="827" y="160" width="60" height="30" as="geometry" />
        </mxCell>
        <mxCell id="1k6euswh9Xf4VPnlZ9CX-102" value="&lt;font style=&quot;font-size: 32px&quot;&gt;0&lt;/font&gt;" style="text;html=1;strokeColor=none;fillColor=none;align=center;verticalAlign=middle;whiteSpace=wrap;rounded=0;fontSize=42;" vertex="1" parent="1">
          <mxGeometry x="730" y="290" width="60" height="30" as="geometry" />
        </mxCell>
      </root>
    </mxGraphModel>
  </diagram>
</mxfile>
